M48
METRIC,LZ,000.000
;FILE_FORMAT=3:3
;TYPE=PLATED
;Layer: PTH_Through
;EasyEDA v6.5.46, 2024-12-21 23:49:30
;c1cc3fe4cf9f4b8488582ba288f1f0f0,90bc6745850c4897ba40f9b8fad946ce,10
;Gerber Generator version 0.2
;Holesize 1 = 0.310 mm
T01C0.310
;Holesize 2 = 0.889 mm
T02C0.889
;Holesize 3 = 1.000 mm
T03C1.000
;Holesize 4 = 1.101 mm
T04C1.101
;Holesize 5 = 1.301 mm
T05C1.301
;Holesize 6 = 1.524 mm
T06C1.524
;Holesize 7 = 2.501 mm
T07C2.501
%
G05
G90
T01
X051435Y082423
X051435Y088138
X043561Y098044
X050165Y089535
X048768Y095123
X049911Y083312
X053340Y076581
X057277Y079502
X059436Y099060
X059150Y080295
X059563Y068199
X048514Y067945
T02
X047371Y064516
X049911Y064516
X052451Y064516
T03
X041344Y080919
X041344Y083419
X039344Y083419
X039344Y080919
T04
X043942Y064516
X041402Y064516
T05
X085725Y096647
X085725Y086487
X085725Y091567
X085852Y079375
X085852Y069215
X085852Y074295
T06
X077204Y085313
X063004Y091313
X065004Y097313
X065004Y085313
X077204Y097312
X077204Y068295
X063004Y074295
X065004Y080295
X065004Y068295
X077204Y080294
T07
X036634Y088189
X036634Y076149
M30
