M48
METRIC,LZ,000.000
;FILE_FORMAT=3:3
;TYPE=PLATED
;Layer: PTH_Through
;EasyEDA v6.5.46, 2024-12-21 23:49:30
;a48d52c4405643ed9221939320048749,90bc6745850c4897ba40f9b8fad946ce,10
;Gerber Generator version 0.2
;Holesize 1 = 0.310 mm
T01C0.310
;Holesize 2 = 0.889 mm
T02C0.889
;Holesize 3 = 1.000 mm
T03C1.000
;Holesize 4 = 1.101 mm
T04C1.101
;Holesize 5 = 1.301 mm
T05C1.301
;Holesize 6 = 1.524 mm
T06C1.524
;Holesize 7 = 2.501 mm
T07C2.501
%
G05
G90
T01
X037214Y072294
X034417Y060198
X021359Y059614
X021359Y059614
X025400Y065913
X030353Y065405
X034036Y076581
X019939Y061849
X028448Y063373
X020574Y060833
X029845Y059817
T02
X028702Y056261
X026162Y056261
X023622Y056261
T03
X017468Y065806
X017468Y068306
X015468Y068306
X015468Y065806
T04
X020193Y056388
X017653Y056388
T05
X062484Y071501
X062484Y061341
X062484Y066421
T06
X053455Y060294
X039255Y066294
X041255Y072294
X041255Y060294
X053455Y072293
T07
X012758Y073076
X012758Y061036
M30
