G04 Layer: BottomSilkscreenLayer*
G04 EasyEDA v6.5.46, 2024-12-21 23:49:30*
G04 c1cc3fe4cf9f4b8488582ba288f1f0f0,90bc6745850c4897ba40f9b8fad946ce,10*
G04 Gerber Generator version 0.2*
G04 Scale: 100 percent, Rotated: No, Reflected: No *
G04 Dimensions in millimeters *
G04 leading zeros omitted , absolute positions ,4 integer and 5 decimal *
%FSLAX45Y45*%
%MOMM*%

%ADD10C,0.2030*%

%LPD*%
D10*
X8122381Y6466337D02*
G01*
X8122381Y6357246D01*
X8129198Y6336792D01*
X8136018Y6329972D01*
X8149653Y6323154D01*
X8170108Y6323154D01*
X8183745Y6329972D01*
X8122381Y6445882D02*
G01*
X8136018Y6459517D01*
X8149653Y6466337D01*
X8170108Y6466337D01*
X8183745Y6459517D01*
X8197382Y6445882D01*
X8204200Y6425427D01*
X8204200Y6411790D01*
X8197382Y6391335D01*
X8183745Y6377698D01*
X8170108Y6370881D01*
X8149653Y6370881D01*
X8136018Y6377698D01*
X8122381Y6391335D01*
X8077382Y6514063D02*
G01*
X8070562Y6507246D01*
X8063745Y6514063D01*
X8070562Y6520881D01*
X8077382Y6514063D01*
X8070562Y6466337D02*
G01*
X8070562Y6370881D01*
X7998292Y6514063D02*
G01*
X7998292Y6398153D01*
X7991472Y6377698D01*
X7977837Y6370881D01*
X7964200Y6370881D01*
X8018746Y6466337D02*
G01*
X7971017Y6466337D01*
X7919201Y6514063D02*
G01*
X7919201Y6370881D01*
X7919201Y6439062D02*
G01*
X7898747Y6459517D01*
X7885109Y6466337D01*
X7864655Y6466337D01*
X7851018Y6459517D01*
X7844200Y6439062D01*
X7844200Y6370881D01*
X7799202Y6466337D02*
G01*
X7799202Y6398153D01*
X7792382Y6377698D01*
X7778747Y6370881D01*
X7758292Y6370881D01*
X7744655Y6377698D01*
X7724200Y6398153D01*
X7724200Y6466337D02*
G01*
X7724200Y6370881D01*
X7679202Y6514063D02*
G01*
X7679202Y6370881D01*
X7679202Y6445882D02*
G01*
X7665565Y6459517D01*
X7651927Y6466337D01*
X7631473Y6466337D01*
X7617838Y6459517D01*
X7604201Y6445882D01*
X7597383Y6425427D01*
X7597383Y6411790D01*
X7604201Y6391335D01*
X7617838Y6377698D01*
X7631473Y6370881D01*
X7651927Y6370881D01*
X7665565Y6377698D01*
X7679202Y6391335D01*
X7545565Y6404973D02*
G01*
X7552382Y6398153D01*
X7545565Y6391335D01*
X7538747Y6398153D01*
X7545565Y6404973D01*
X7411928Y6445882D02*
G01*
X7425565Y6459517D01*
X7439202Y6466337D01*
X7459654Y6466337D01*
X7473292Y6459517D01*
X7486929Y6445882D01*
X7493746Y6425427D01*
X7493746Y6411790D01*
X7486929Y6391335D01*
X7473292Y6377698D01*
X7459654Y6370881D01*
X7439202Y6370881D01*
X7425565Y6377698D01*
X7411928Y6391335D01*
X7332837Y6466337D02*
G01*
X7346475Y6459517D01*
X7360109Y6445882D01*
X7366929Y6425427D01*
X7366929Y6411790D01*
X7360109Y6391335D01*
X7346475Y6377698D01*
X7332837Y6370881D01*
X7312383Y6370881D01*
X7298748Y6377698D01*
X7285111Y6391335D01*
X7278293Y6411790D01*
X7278293Y6425427D01*
X7285111Y6445882D01*
X7298748Y6459517D01*
X7312383Y6466337D01*
X7332837Y6466337D01*
X7233292Y6466337D02*
G01*
X7233292Y6370881D01*
X7233292Y6439062D02*
G01*
X7212838Y6459517D01*
X7199203Y6466337D01*
X7178748Y6466337D01*
X7165111Y6459517D01*
X7158294Y6439062D01*
X7158294Y6370881D01*
X7158294Y6439062D02*
G01*
X7137839Y6459517D01*
X7124202Y6466337D01*
X7103747Y6466337D01*
X7090110Y6459517D01*
X7083292Y6439062D01*
X7083292Y6370881D01*
X6915566Y6541335D02*
G01*
X7038294Y6323154D01*
X6870565Y6514063D02*
G01*
X6870565Y6370881D01*
X6743748Y6466337D02*
G01*
X6743748Y6370881D01*
X6743748Y6445882D02*
G01*
X6757385Y6459517D01*
X6771020Y6466337D01*
X6791474Y6466337D01*
X6805112Y6459517D01*
X6818749Y6445882D01*
X6825566Y6425427D01*
X6825566Y6411790D01*
X6818749Y6391335D01*
X6805112Y6377698D01*
X6791474Y6370881D01*
X6771020Y6370881D01*
X6757385Y6377698D01*
X6743748Y6391335D01*
X6698749Y6466337D02*
G01*
X6698749Y6370881D01*
X6698749Y6439062D02*
G01*
X6678295Y6459517D01*
X6664657Y6466337D01*
X6644203Y6466337D01*
X6630565Y6459517D01*
X6623748Y6439062D01*
X6623748Y6370881D01*
X6623748Y6439062D02*
G01*
X6603293Y6459517D01*
X6589656Y6466337D01*
X6569204Y6466337D01*
X6555567Y6459517D01*
X6548749Y6439062D01*
X6548749Y6370881D01*
X6496931Y6479971D02*
G01*
X6496931Y6486791D01*
X6490111Y6500426D01*
X6483294Y6507246D01*
X6469656Y6514063D01*
X6442384Y6514063D01*
X6428750Y6507246D01*
X6421930Y6500426D01*
X6415112Y6486791D01*
X6415112Y6473154D01*
X6421930Y6459517D01*
X6435567Y6439062D01*
X6503748Y6370881D01*
X6408295Y6370881D01*
X6349657Y6514063D02*
G01*
X6274658Y6514063D01*
X6315567Y6459517D01*
X6295113Y6459517D01*
X6281475Y6452699D01*
X6274658Y6445882D01*
X6267841Y6425427D01*
X6267841Y6411790D01*
X6274658Y6391335D01*
X6288295Y6377698D01*
X6308750Y6370881D01*
X6329202Y6370881D01*
X6349657Y6377698D01*
X6356477Y6384518D01*
X6363294Y6398153D01*
X6134204Y6466337D02*
G01*
X6141021Y6445882D01*
X6154658Y6432245D01*
X6175113Y6425427D01*
X6181930Y6425427D01*
X6202385Y6432245D01*
X6216022Y6445882D01*
X6222839Y6466337D01*
X6222839Y6473154D01*
X6216022Y6493609D01*
X6202385Y6507246D01*
X6181930Y6514063D01*
X6175113Y6514063D01*
X6154658Y6507246D01*
X6141021Y6493609D01*
X6134204Y6466337D01*
X6134204Y6432245D01*
X6141021Y6398153D01*
X6154658Y6377698D01*
X6175113Y6370881D01*
X6188750Y6370881D01*
X6209202Y6377698D01*
X6216022Y6391335D01*
X6055113Y6514063D02*
G01*
X6075568Y6507246D01*
X6082385Y6493609D01*
X6082385Y6479971D01*
X6075568Y6466337D01*
X6061930Y6459517D01*
X6034659Y6452699D01*
X6014204Y6445882D01*
X6000567Y6432245D01*
X5993749Y6418607D01*
X5993749Y6398153D01*
X6000567Y6384518D01*
X6007387Y6377698D01*
X6027841Y6370881D01*
X6055113Y6370881D01*
X6075568Y6377698D01*
X6082385Y6384518D01*
X6089202Y6398153D01*
X6089202Y6418607D01*
X6082385Y6432245D01*
X6068750Y6445882D01*
X6048296Y6452699D01*
X6021021Y6459517D01*
X6007387Y6466337D01*
X6000567Y6479971D01*
X6000567Y6493609D01*
X6007387Y6507246D01*
X6027841Y6514063D01*
X6055113Y6514063D01*
X8798128Y9257626D02*
G01*
X8784490Y9264446D01*
X8770853Y9278081D01*
X8764036Y9291718D01*
X8764036Y9318990D01*
X8770853Y9332628D01*
X8784490Y9346262D01*
X8798128Y9353082D01*
X8818582Y9359900D01*
X8852672Y9359900D01*
X8873126Y9353082D01*
X8886764Y9346262D01*
X8900401Y9332628D01*
X8907218Y9318990D01*
X8907218Y9291718D01*
X8900401Y9278081D01*
X8886764Y9264446D01*
X8873126Y9257626D01*
X8764036Y9171719D02*
G01*
X8770853Y9185353D01*
X8784490Y9198990D01*
X8798128Y9205808D01*
X8818582Y9212628D01*
X8852672Y9212628D01*
X8873126Y9205808D01*
X8886764Y9198990D01*
X8900401Y9185353D01*
X8907218Y9171719D01*
X8907218Y9144447D01*
X8900401Y9130809D01*
X8886764Y9117172D01*
X8873126Y9110355D01*
X8852672Y9103537D01*
X8818582Y9103537D01*
X8798128Y9110355D01*
X8784490Y9117172D01*
X8770853Y9130809D01*
X8764036Y9144447D01*
X8764036Y9171719D01*
X8764036Y9058536D02*
G01*
X8907218Y9058536D01*
X8764036Y9058536D02*
G01*
X8907218Y9003992D01*
X8764036Y8949446D02*
G01*
X8907218Y9003992D01*
X8764036Y8949446D02*
G01*
X8907218Y8949446D01*
X8764036Y9829800D02*
G01*
X8907218Y9829800D01*
X8764036Y9829800D02*
G01*
X8907218Y9734346D01*
X8764036Y9734346D02*
G01*
X8907218Y9734346D01*
X8798128Y9587072D02*
G01*
X8784490Y9593892D01*
X8770853Y9607527D01*
X8764036Y9621164D01*
X8764036Y9648436D01*
X8770853Y9662073D01*
X8784490Y9675708D01*
X8798128Y9682528D01*
X8818582Y9689345D01*
X8852672Y9689345D01*
X8873126Y9682528D01*
X8886764Y9675708D01*
X8900401Y9662073D01*
X8907218Y9648436D01*
X8907218Y9621164D01*
X8900401Y9607527D01*
X8886764Y9593892D01*
X8873126Y9587072D01*
X8776736Y8750300D02*
G01*
X8919918Y8750300D01*
X8776736Y8750300D02*
G01*
X8919918Y8654846D01*
X8776736Y8654846D02*
G01*
X8919918Y8654846D01*
X8776736Y8568936D02*
G01*
X8783553Y8582573D01*
X8797190Y8596208D01*
X8810828Y8603028D01*
X8831282Y8609845D01*
X8865372Y8609845D01*
X8885826Y8603028D01*
X8899464Y8596208D01*
X8913101Y8582573D01*
X8919918Y8568936D01*
X8919918Y8541664D01*
X8913101Y8528027D01*
X8899464Y8514392D01*
X8885826Y8507572D01*
X8865372Y8500755D01*
X8831282Y8500755D01*
X8810828Y8507572D01*
X8797190Y8514392D01*
X8783553Y8528027D01*
X8776736Y8541664D01*
X8776736Y8568936D01*
X8751336Y8077200D02*
G01*
X8894518Y8077200D01*
X8751336Y8077200D02*
G01*
X8894518Y7981746D01*
X8751336Y7981746D02*
G01*
X8894518Y7981746D01*
X8785428Y7834472D02*
G01*
X8771790Y7841292D01*
X8758153Y7854927D01*
X8751336Y7868564D01*
X8751336Y7895836D01*
X8758153Y7909473D01*
X8771790Y7923108D01*
X8785428Y7929928D01*
X8805882Y7936745D01*
X8839972Y7936745D01*
X8860426Y7929928D01*
X8874064Y7923108D01*
X8887701Y7909473D01*
X8894518Y7895836D01*
X8894518Y7868564D01*
X8887701Y7854927D01*
X8874064Y7841292D01*
X8860426Y7834472D01*
X8785428Y7505026D02*
G01*
X8771790Y7511846D01*
X8758153Y7525481D01*
X8751336Y7539118D01*
X8751336Y7566390D01*
X8758153Y7580028D01*
X8771790Y7593662D01*
X8785428Y7600482D01*
X8805882Y7607300D01*
X8839972Y7607300D01*
X8860426Y7600482D01*
X8874064Y7593662D01*
X8887701Y7580028D01*
X8894518Y7566390D01*
X8894518Y7539118D01*
X8887701Y7525481D01*
X8874064Y7511846D01*
X8860426Y7505026D01*
X8751336Y7419119D02*
G01*
X8758153Y7432753D01*
X8771790Y7446390D01*
X8785428Y7453208D01*
X8805882Y7460028D01*
X8839972Y7460028D01*
X8860426Y7453208D01*
X8874064Y7446390D01*
X8887701Y7432753D01*
X8894518Y7419119D01*
X8894518Y7391847D01*
X8887701Y7378209D01*
X8874064Y7364572D01*
X8860426Y7357755D01*
X8839972Y7350937D01*
X8805882Y7350937D01*
X8785428Y7357755D01*
X8771790Y7364572D01*
X8758153Y7378209D01*
X8751336Y7391847D01*
X8751336Y7419119D01*
X8751336Y7305936D02*
G01*
X8894518Y7305936D01*
X8751336Y7305936D02*
G01*
X8894518Y7251392D01*
X8751336Y7196846D02*
G01*
X8894518Y7251392D01*
X8751336Y7196846D02*
G01*
X8894518Y7196846D01*
X8764036Y6997700D02*
G01*
X8907218Y6997700D01*
X8764036Y6997700D02*
G01*
X8907218Y6902246D01*
X8764036Y6902246D02*
G01*
X8907218Y6902246D01*
X8764036Y6816336D02*
G01*
X8770853Y6829973D01*
X8784490Y6843608D01*
X8798128Y6850428D01*
X8818582Y6857245D01*
X8852672Y6857245D01*
X8873126Y6850428D01*
X8886764Y6843608D01*
X8900401Y6829973D01*
X8907218Y6816336D01*
X8907218Y6789064D01*
X8900401Y6775427D01*
X8886764Y6761792D01*
X8873126Y6754972D01*
X8852672Y6748155D01*
X8818582Y6748155D01*
X8798128Y6754972D01*
X8784490Y6761792D01*
X8770853Y6775427D01*
X8764036Y6789064D01*
X8764036Y6816336D01*
M02*
