G04 Layer: TopSolderMaskLayer*
G04 EasyEDA v6.5.46, 2024-12-21 23:49:30*
G04 a48d52c4405643ed9221939320048749,90bc6745850c4897ba40f9b8fad946ce,10*
G04 Gerber Generator version 0.2*
G04 Scale: 100 percent, Rotated: No, Reflected: No *
G04 Dimensions in millimeters *
G04 leading zeros omitted , absolute positions ,4 integer and 5 decimal *
%FSLAX45Y45*%
%MOMM*%

%AMMACRO1*4,1,8,-0.7261,-0.7258,-0.7558,-0.6958,-0.7558,0.6961,-0.7261,0.7258,0.7258,0.7258,0.7558,0.6961,0.7558,-0.6958,0.7258,-0.7258,-0.7261,-0.7258,0*%
%AMMACRO2*4,1,8,-0.7209,-0.701,-0.7506,-0.6711,-0.7506,0.6713,-0.7209,0.701,0.7206,0.701,0.7506,0.6713,0.7506,-0.6711,0.7206,-0.701,-0.7209,-0.701,0*%
%AMMACRO3*4,1,8,-0.5211,-0.7506,-0.5508,-0.7206,-0.5508,0.7209,-0.5211,0.7506,0.5208,0.7506,0.5508,0.7209,0.5508,-0.7206,0.5208,-0.7506,-0.5211,-0.7506,0*%
%AMMACRO4*4,1,8,-0.871,-0.8382,-0.9007,-0.8082,-0.9007,0.8085,-0.871,0.8382,0.8707,0.8382,0.9007,0.8085,0.9007,-0.8082,0.8707,-0.8382,-0.871,-0.8382,0*%
%AMMACRO5*4,1,8,-0.8085,-0.8382,-0.8382,-0.8082,-0.8382,0.8085,-0.8085,0.8382,0.8082,0.8382,0.8382,0.8085,0.8382,-0.8082,0.8082,-0.8382,-0.8085,-0.8382,0*%
%AMMACRO6*4,1,8,-0.5874,-0.7394,-0.6171,-0.7094,-0.6171,0.7097,-0.5874,0.7394,0.5871,0.7394,0.6171,0.7097,0.6171,-0.7094,0.5871,-0.7394,-0.5874,-0.7394,0*%
%AMMACRO7*4,1,8,-0.7097,-0.6171,-0.7394,-0.5871,-0.7394,0.5874,-0.7097,0.6171,0.7094,0.6171,0.7394,0.5874,0.7394,-0.5871,0.7094,-0.6171,-0.7097,-0.6171,0*%
%AMMACRO8*4,1,8,-0.486,-0.6507,-0.5157,-0.6208,-0.5157,0.621,-0.486,0.6507,0.4858,0.6507,0.5157,0.621,0.5157,-0.6208,0.4858,-0.6507,-0.486,-0.6507,0*%
%AMMACRO9*4,1,8,-0.6462,-0.4008,-0.6759,-0.3708,-0.6759,0.3711,-0.6462,0.4008,0.6459,0.4008,0.6759,0.3711,0.6759,-0.3708,0.6459,-0.4008,-0.6462,-0.4008,0*%
%AMMACRO10*4,1,8,-0.5874,-0.7393,-0.6171,-0.7093,-0.6171,0.7095,-0.5874,0.7393,0.5871,0.7393,0.6171,0.7095,0.6171,-0.7093,0.5871,-0.7393,-0.5874,-0.7393,0*%
%AMMACRO11*4,1,8,-0.8211,-0.8508,-0.8508,-0.8208,-0.8508,0.8211,-0.8211,0.8508,0.8208,0.8508,0.8508,0.8211,0.8508,-0.8208,0.8208,-0.8508,-0.8211,-0.8508,0*%
%AMMACRO12*4,1,8,-0.621,-0.5157,-0.6507,-0.4858,-0.6507,0.486,-0.621,0.5157,0.6208,0.5157,0.6507,0.486,0.6507,-0.4858,0.6208,-0.5157,-0.621,-0.5157,0*%
%AMMACRO13*4,1,8,-0.621,-0.5159,-0.6507,-0.4859,-0.6507,0.4862,-0.621,0.5159,0.6208,0.5159,0.6507,0.4862,0.6507,-0.4859,0.6208,-0.5159,-0.621,-0.5159,0*%
%AMMACRO14*4,1,8,-0.7095,-0.6171,-0.7393,-0.5871,-0.7393,0.5874,-0.7095,0.6171,0.7093,0.6171,0.7393,0.5874,0.7393,-0.5871,0.7093,-0.6171,-0.7095,-0.6171,0*%
%ADD10MACRO1*%
%ADD11MACRO2*%
%ADD12MACRO3*%
%ADD13MACRO4*%
%ADD14C,1.8016*%
%ADD15C,1.6764*%
%ADD16MACRO5*%
%ADD17MACRO6*%
%ADD18MACRO7*%
%ADD19MACRO8*%
%ADD20O,0.7500366X2.1320252*%
%ADD21MACRO9*%
%ADD22MACRO10*%
%ADD23MACRO11*%
%ADD24C,1.7016*%
%ADD25C,3.4016*%
%ADD26MACRO12*%
%ADD27MACRO13*%
%ADD28C,2.1016*%
%ADD29MACRO14*%
%ADD30C,2.8956*%

%LPD*%
D10*
G01*
X2444940Y6314427D03*
G01*
X2244915Y6314427D03*
D11*
G01*
X3424554Y6682232D03*
G01*
X3424554Y6892290D03*
D12*
G01*
X2206510Y6567805D03*
G01*
X2416568Y6567805D03*
D13*
G01*
X2019300Y5638800D03*
D14*
G01*
X1765300Y5638800D03*
D15*
G01*
X2870200Y5626100D03*
G01*
X2616200Y5626100D03*
D16*
G01*
X2362200Y5626100D03*
D17*
G01*
X2265235Y7569200D03*
G01*
X2465260Y7569200D03*
D18*
G01*
X2984500Y6961187D03*
G01*
X2984500Y7161212D03*
D10*
G01*
X2445042Y6070587D03*
G01*
X2245042Y6070587D03*
D19*
G01*
X2494902Y6826173D03*
G01*
X2164905Y6826173D03*
D20*
G01*
X3124200Y6705803D03*
G01*
X2997200Y6705803D03*
G01*
X2870200Y6705803D03*
G01*
X2743200Y6705803D03*
G01*
X2743200Y6146596D03*
G01*
X2870200Y6146596D03*
G01*
X2997200Y6146596D03*
G01*
X3124200Y6146596D03*
D21*
G01*
X3134868Y7493000D03*
G01*
X2884931Y7398003D03*
G01*
X2884931Y7587996D03*
D22*
G01*
X2465285Y7322705D03*
G01*
X2265286Y7322705D03*
G01*
X2265286Y7076198D03*
G01*
X2465285Y7076198D03*
D23*
G01*
X1746796Y6580593D03*
D24*
G01*
X1746808Y6830593D03*
G01*
X1546809Y6830593D03*
G01*
X1546809Y6580606D03*
D25*
G01*
X1275816Y7307605D03*
G01*
X1275816Y6103594D03*
D26*
G01*
X3419805Y7531011D03*
D27*
G01*
X3419805Y7201001D03*
D28*
G01*
X6248387Y7150087D03*
G01*
X6248387Y6134087D03*
G01*
X6248387Y6642087D03*
D29*
G01*
X3416287Y6373787D03*
G01*
X3416287Y6173787D03*
D30*
G01*
X5345498Y6029439D03*
G01*
X3925486Y6629387D03*
G01*
X4125485Y7229386D03*
G01*
X4125485Y6029388D03*
G01*
X5345498Y7229335D03*
M02*
