G04 Layer: TopLayer*
G04 EasyEDA v6.5.46, 2024-12-21 23:49:30*
G04 c1cc3fe4cf9f4b8488582ba288f1f0f0,90bc6745850c4897ba40f9b8fad946ce,10*
G04 Gerber Generator version 0.2*
G04 Scale: 100 percent, Rotated: No, Reflected: No *
G04 Dimensions in millimeters *
G04 leading zeros omitted , absolute positions ,4 integer and 5 decimal *
%FSLAX45Y45*%
%MOMM*%

%AMMACRO1*21,1,$1,$2,0,0,$3*%
%ADD10C,0.3000*%
%ADD11C,3.0000*%
%ADD12MACRO1,1.377X1.1325X0.0000*%
%ADD13R,1.3770X1.1325*%
%ADD14R,1.2000X0.9300*%
%ADD15MACRO1,1.377X1.1325X-90.0000*%
%ADD16MACRO1,1.377X1.1325X90.0000*%
%ADD17R,1.2500X0.7000*%
%ADD18O,0.6500114X2.032*%
%ADD19R,1.0000X1.3995*%
%ADD20R,1.3995X1.3005*%
%ADD21R,0.9300X1.2000*%
%ADD22MACRO1,1.35X1.41X90.0000*%
%ADD23C,2.7940*%
%ADD24C,2.0000*%
%ADD25R,1.6000X1.6000*%
%ADD26C,1.6000*%
%ADD27C,3.3000*%
%ADD28R,1.7000X1.5748*%
%ADD29C,1.7000*%
%ADD30C,1.5748*%
%ADD31R,1.5748X1.5748*%
%ADD32C,0.6200*%
%ADD33C,0.0113*%

%LPD*%
D10*
X5740400Y8204126D02*
G01*
X5915025Y8029501D01*
X4689883Y7857182D02*
G01*
X4686300Y7853603D01*
X4686300Y7747000D01*
X4635500Y7696200D01*
X4394200Y7696200D01*
X4330700Y7632700D01*
X4330700Y6921500D01*
X4457700Y6794500D01*
X4851400Y6794500D01*
X5956300Y6819900D02*
G01*
X5919800Y6783400D01*
X5753100Y6783400D01*
X5753100Y7324470D02*
G01*
X5753100Y6983399D01*
X5756635Y9905900D02*
G01*
X5756734Y9906000D01*
X5943600Y9906000D01*
X5756635Y9575899D02*
G01*
X5778500Y9597770D01*
X5778500Y9731275D01*
X5727700Y7950200D02*
G01*
X5740400Y7937500D01*
X5740400Y7874124D01*
X5069334Y7442200D02*
G01*
X5285234Y7658100D01*
X5334000Y7658100D01*
X5397500Y8076945D02*
G01*
X5461000Y8013445D01*
X5461000Y7200900D01*
X4737100Y6477000D01*
X4737100Y6451600D01*
X4991100Y6451600D02*
G01*
X5562600Y7023100D01*
X5562600Y7467600D01*
X5629399Y7534653D01*
X5753100Y7534653D01*
X4710173Y7525765D02*
G01*
X4889500Y7705346D01*
X4889500Y8394700D01*
X4914900Y8420100D01*
X5346700Y8420100D01*
X5397500Y8470900D01*
X5397500Y8636254D01*
X4710112Y7193178D02*
G01*
X4740498Y7162800D01*
X4991100Y7162800D01*
X5156200Y7327900D01*
X5156200Y7340600D01*
X5194300Y7378700D01*
X5194300Y7429500D01*
X5302001Y7537195D01*
X5319265Y7537195D01*
X4510087Y7193178D02*
G01*
X4521200Y7182065D01*
X4521200Y7073900D01*
X4584700Y7010400D01*
X4965700Y7010400D01*
X5302534Y7347229D01*
X5319265Y7347229D01*
X4727823Y8864605D02*
G01*
X4559300Y8696083D01*
X4559300Y8382000D01*
X4489858Y8312558D01*
X4489858Y8187184D01*
X4727823Y8864605D02*
G01*
X4762500Y8899283D01*
X4762500Y8978900D01*
X4826000Y9042400D01*
X5194300Y9042400D01*
X5270500Y8966200D01*
X5270500Y8636205D01*
X5016500Y8636205D02*
G01*
X4902324Y8522027D01*
X4739716Y8522027D01*
X4991100Y8331200D02*
G01*
X5003800Y8343900D01*
X5207000Y8343900D01*
X5270500Y8280400D01*
X5270500Y8076994D01*
X4876800Y9512300D02*
G01*
X4848908Y9540186D01*
X4710125Y9540186D01*
X5016500Y8636205D02*
G01*
X5016500Y8953500D01*
X4356100Y9804400D02*
G01*
X4406887Y9855187D01*
X4497392Y9855187D01*
X5143500Y8636205D02*
G01*
X5143500Y8813800D01*
X5313324Y8811140D02*
G01*
X5761408Y9259224D01*
X5761408Y9267136D01*
X5270500Y8636205D02*
G01*
X5270500Y8768321D01*
X5328678Y8826500D01*
X5753100Y7534529D02*
G01*
X5575300Y7712329D01*
X5575300Y8712200D01*
X5461000Y8826500D01*
X5308600Y8826500D01*
X5270500Y8788400D01*
X5270500Y8636205D01*
X5740400Y7874124D02*
G01*
X5829424Y7785100D01*
X5905500Y7785100D01*
X5969000Y7721600D01*
X5969000Y6921500D01*
X6061001Y6829498D01*
X6500390Y6829498D01*
X5915025Y8029501D02*
G01*
X6500390Y8029501D01*
X5753100Y8548700D02*
G01*
X5740400Y8536000D01*
X5740400Y8204126D01*
X5756635Y9575899D02*
G01*
X5769434Y9563100D01*
X5842000Y9563100D01*
X5943600Y9461500D01*
X5943600Y8610600D01*
X5881700Y8548700D01*
X5753100Y8548700D01*
X5143500Y8242300D02*
G01*
X5143500Y8076994D01*
X4689883Y8187184D02*
G01*
X4689883Y7857182D01*
X4510087Y7193178D02*
G01*
X4510087Y7525847D01*
X3934406Y8091909D02*
G01*
X3934406Y7965493D01*
X4051300Y7848600D01*
X4216400Y7848600D01*
X4318000Y7950200D01*
X4318000Y8001000D01*
X4489858Y8172858D01*
X4489858Y8187184D01*
X4409721Y8522027D02*
G01*
X4318000Y8430313D01*
X4318000Y8178800D01*
X4231109Y8091909D01*
X4134408Y8091909D01*
X4739716Y8522027D02*
G01*
X4689883Y8472195D01*
X4689883Y8187184D01*
X4710125Y9207500D02*
G01*
X4584700Y9082074D01*
X4584700Y8877300D01*
X4572005Y8864605D01*
X4517763Y8864605D01*
X4710125Y9207500D02*
G01*
X4691255Y9188630D01*
X4510100Y9540186D02*
G01*
X4134408Y9164495D01*
X4134408Y8341890D01*
X4510100Y9207500D02*
G01*
X4483100Y9234500D01*
X4483100Y9309100D01*
X4533900Y9359900D01*
X4864100Y9359900D01*
X5080000Y9144000D01*
X5410200Y9144000D01*
X5575300Y9309100D01*
X5575300Y9677400D01*
X5629175Y9731275D01*
X6500390Y9731275D01*
X4510100Y9207500D02*
G01*
X4254500Y8951899D01*
X4254500Y8636000D01*
X4368472Y8522027D01*
X4409721Y8522027D01*
X4489858Y8187184D02*
G01*
X4489858Y7857182D01*
X5761408Y9057078D02*
G01*
X5753100Y9048775D01*
X5753100Y8748699D01*
X5069334Y9448800D02*
G01*
X5092700Y9425434D01*
X5092700Y9309100D01*
X5168900Y9232900D01*
X5397500Y9232900D01*
X5499100Y9334500D01*
X5499100Y9842500D01*
X5562500Y9905900D01*
X5756635Y9905900D01*
X5132387Y9855200D02*
G01*
X5132387Y9650407D01*
X5194300Y9588500D01*
X5194300Y9478794D01*
X5319265Y9353829D01*
X4697417Y9855187D02*
G01*
X5132387Y9855200D01*
X5332412Y9855200D02*
G01*
X5319265Y9842052D01*
X5319265Y9543795D01*
D11*
X6300391Y9131300D02*
G01*
X8547100Y9131300D01*
X8572500Y9156700D01*
X7720408Y9731250D02*
G01*
X8505949Y9731250D01*
X8572500Y9664700D01*
X7720408Y8531349D02*
G01*
X8455149Y8531349D01*
X8572500Y8648700D01*
X6300391Y7429500D02*
G01*
X8585200Y7429500D01*
X7720408Y8029450D02*
G01*
X8493249Y8029450D01*
X8585200Y7937494D01*
X7720408Y6829549D02*
G01*
X8493262Y6829549D01*
X8585200Y6921494D01*
D12*
G01*
X5753100Y8748704D03*
D13*
G01*
X5753100Y8548700D03*
D14*
G01*
X5756630Y9575901D03*
G01*
X5756630Y9905898D03*
D15*
G01*
X4497395Y9855200D03*
G01*
X4697404Y9855200D03*
G01*
X4510102Y9207512D03*
G01*
X4710112Y9207512D03*
G01*
X5132395Y9855200D03*
G01*
X5332404Y9855200D03*
D16*
G01*
X4710112Y9540196D03*
G01*
X4510102Y9540196D03*
D17*
G01*
X5069331Y9448800D03*
G01*
X5319268Y9543795D03*
G01*
X5319268Y9353829D03*
D18*
G01*
X5397500Y8636203D03*
G01*
X5270500Y8636203D03*
G01*
X5143500Y8636203D03*
G01*
X5016500Y8636203D03*
G01*
X5016500Y8076996D03*
G01*
X5143500Y8076996D03*
G01*
X5270500Y8076996D03*
G01*
X5397500Y8076996D03*
D19*
G01*
X4517770Y8864600D03*
G01*
X4727829Y8864600D03*
D20*
G01*
X5761405Y9057081D03*
G01*
X5761405Y9267139D03*
D21*
G01*
X4739716Y8522030D03*
G01*
X4409719Y8522030D03*
D22*
G01*
X4689868Y7857190D03*
G01*
X4489864Y7857190D03*
G01*
X4689868Y8187171D03*
G01*
X4489864Y8187171D03*
D15*
G01*
X4510100Y7193168D03*
G01*
X4710109Y7193168D03*
D16*
G01*
X4710109Y7525847D03*
G01*
X4510100Y7525847D03*
D12*
G01*
X5753100Y6983404D03*
D13*
G01*
X5753100Y6783400D03*
D17*
G01*
X5069331Y7442200D03*
G01*
X5319268Y7537195D03*
G01*
X5319268Y7347229D03*
D20*
G01*
X5753100Y7324470D03*
G01*
X5753100Y7534529D03*
D14*
G01*
X5740400Y8204123D03*
G01*
X5740400Y7874127D03*
D23*
G01*
X7720406Y8531326D03*
G01*
X6300393Y9131274D03*
G01*
X6500393Y9731273D03*
G01*
X6500393Y8531275D03*
G01*
X7720406Y9731222D03*
D24*
G01*
X8572500Y9664700D03*
G01*
X8572500Y8648700D03*
G01*
X8572500Y9156700D03*
D25*
G01*
X4134408Y8091906D03*
D26*
G01*
X4134408Y8341893D03*
G01*
X3934409Y8341893D03*
G01*
X3934409Y8091906D03*
D27*
G01*
X3663416Y8818905D03*
G01*
X3663416Y7614894D03*
D28*
G01*
X4394200Y6451600D03*
D29*
G01*
X4140200Y6451600D03*
D30*
G01*
X4737100Y6451600D03*
G01*
X4991100Y6451600D03*
D31*
G01*
X5245100Y6451600D03*
D23*
G01*
X7720406Y6829552D03*
G01*
X6300393Y7429500D03*
G01*
X6500393Y8029498D03*
G01*
X6500393Y6829501D03*
G01*
X7720406Y8029447D03*
D24*
G01*
X8585200Y7937500D03*
G01*
X8585200Y6921500D03*
G01*
X8585200Y7429500D03*
D32*
G01*
X5143500Y8242300D03*
G01*
X5143500Y8813800D03*
G01*
X4356100Y9804400D03*
G01*
X5016500Y8953500D03*
G01*
X4876800Y9512300D03*
G01*
X4991100Y8331200D03*
G01*
X5334000Y7658100D03*
G01*
X5727700Y7950200D03*
G01*
X5943600Y9906000D03*
G01*
X5915025Y8029498D03*
G01*
X5956300Y6819900D03*
G01*
X4851400Y6794500D03*
M02*
