G04 Layer: BottomLayer*
G04 EasyEDA v6.5.46, 2024-12-21 23:49:30*
G04 c1cc3fe4cf9f4b8488582ba288f1f0f0,90bc6745850c4897ba40f9b8fad946ce,10*
G04 Gerber Generator version 0.2*
G04 Scale: 100 percent, Rotated: No, Reflected: No *
G04 Dimensions in millimeters *
G04 leading zeros omitted , absolute positions ,4 integer and 5 decimal *
%FSLAX45Y45*%
%MOMM*%

%ADD10C,0.3100*%
%ADD11C,0.3000*%
%ADD12C,3.0000*%
%ADD13C,2.7940*%
%ADD14C,2.0000*%
%ADD15R,1.6000X1.6000*%
%ADD16C,1.6000*%
%ADD17C,3.3000*%
%ADD18R,1.7000X1.5748*%
%ADD19C,1.7000*%
%ADD20C,1.5748*%
%ADD21R,1.5748X1.5748*%
%ADD22C,0.6200*%

%LPD*%
D10*
X5914989Y8029483D02*
G01*
X5956300Y7988226D01*
X5956300Y6870700D01*
X5956287Y6819912D01*
D11*
X4851400Y6794500D02*
G01*
X5143500Y6794500D01*
X5245100Y6692900D01*
X5245100Y6451600D01*
X5943600Y9906000D02*
G01*
X5943600Y8750300D01*
X6162624Y8531275D01*
X6500390Y8531275D01*
X5334000Y7658100D02*
G01*
X5626100Y7950200D01*
X5727700Y7950200D01*
X4394200Y6451600D02*
G01*
X4584700Y6642100D01*
X4914900Y6642100D01*
X4991100Y6565900D01*
X4991100Y6451600D01*
X5143500Y8813800D02*
G01*
X5092700Y8864600D01*
X4953000Y8864600D01*
X4356100Y9461500D01*
X4356100Y9668253D01*
X4134408Y8341890D02*
G01*
X4145104Y8331200D01*
X4991100Y8331200D01*
X4134408Y8091909D02*
G01*
X4140200Y8086117D01*
X4140200Y6451600D01*
X3934406Y8091909D02*
G01*
X3663416Y8362899D01*
X3663416Y8818902D01*
X3934406Y8091909D02*
G01*
X3663416Y7820911D01*
X3663416Y7614897D01*
X5016500Y8953500D02*
G01*
X4876800Y9093200D01*
X4876800Y9486900D01*
X4876800Y9512300D01*
X4356100Y9652000D02*
G01*
X4356100Y9804400D01*
X3934406Y8341890D02*
G01*
X3949700Y8357181D01*
X3949700Y8496300D01*
X4000500Y8547100D01*
X4356100Y8547100D01*
X4368800Y8534400D01*
X4978400Y8534400D01*
X5143500Y8369300D01*
X5143500Y8242300D01*
D12*
X7720408Y8531349D02*
G01*
X8455149Y8531349D01*
X8572500Y8648700D01*
X7720408Y9731250D02*
G01*
X8505949Y9731250D01*
X8572500Y9664700D01*
X6300391Y9131300D02*
G01*
X8547100Y9131300D01*
X8572500Y9156700D01*
X6300391Y7429500D02*
G01*
X8585200Y7429500D01*
X7720408Y8029450D02*
G01*
X8493249Y8029450D01*
X8585200Y7937494D01*
X7720408Y6829549D02*
G01*
X8493262Y6829549D01*
X8585200Y6921494D01*
D13*
G01*
X7720406Y8531326D03*
G01*
X6300393Y9131274D03*
G01*
X6500393Y9731273D03*
G01*
X6500393Y8531275D03*
G01*
X7720406Y9731222D03*
D14*
G01*
X8572500Y9664700D03*
G01*
X8572500Y8648700D03*
G01*
X8572500Y9156700D03*
D15*
G01*
X4134408Y8091906D03*
D16*
G01*
X4134408Y8341893D03*
G01*
X3934409Y8341893D03*
G01*
X3934409Y8091906D03*
D17*
G01*
X3663416Y8818905D03*
G01*
X3663416Y7614894D03*
D18*
G01*
X4394200Y6451600D03*
D19*
G01*
X4140200Y6451600D03*
D20*
G01*
X4737100Y6451600D03*
G01*
X4991100Y6451600D03*
D21*
G01*
X5245100Y6451600D03*
D13*
G01*
X7720406Y6829552D03*
G01*
X6300393Y7429500D03*
G01*
X6500393Y8029498D03*
G01*
X6500393Y6829501D03*
G01*
X7720406Y8029447D03*
D14*
G01*
X8585200Y7937500D03*
G01*
X8585200Y6921500D03*
G01*
X8585200Y7429500D03*
D22*
G01*
X5143500Y8242300D03*
G01*
X5143500Y8813800D03*
G01*
X4356100Y9804400D03*
G01*
X5016500Y8953500D03*
G01*
X4876800Y9512300D03*
G01*
X4991100Y8331200D03*
G01*
X5334000Y7658100D03*
G01*
X5727700Y7950200D03*
G01*
X5943600Y9906000D03*
G01*
X5915025Y8029498D03*
G01*
X5956300Y6819900D03*
G01*
X4851400Y6794500D03*
M02*
