G04 Layer: TopSolderMaskLayer*
G04 EasyEDA v6.5.46, 2024-12-21 23:49:30*
G04 c1cc3fe4cf9f4b8488582ba288f1f0f0,90bc6745850c4897ba40f9b8fad946ce,10*
G04 Gerber Generator version 0.2*
G04 Scale: 100 percent, Rotated: No, Reflected: No *
G04 Dimensions in millimeters *
G04 leading zeros omitted , absolute positions ,4 integer and 5 decimal *
%FSLAX45Y45*%
%MOMM*%

%AMMACRO1*4,1,8,-0.7097,-0.6171,-0.7394,-0.5871,-0.7394,0.5874,-0.7097,0.6171,0.7094,0.6171,0.7394,0.5874,0.7394,-0.5871,0.7094,-0.6171,-0.7097,-0.6171,0*%
%AMMACRO2*4,1,8,-0.621,-0.5159,-0.6507,-0.4859,-0.6507,0.4862,-0.621,0.5159,0.6208,0.5159,0.6507,0.4862,0.6507,-0.4859,0.6208,-0.5159,-0.621,-0.5159,0*%
%AMMACRO3*4,1,8,-0.621,-0.5157,-0.6507,-0.4858,-0.6507,0.486,-0.621,0.5157,0.6208,0.5157,0.6507,0.486,0.6507,-0.4858,0.6208,-0.5157,-0.621,-0.5157,0*%
%AMMACRO4*4,1,8,-0.8211,-0.8508,-0.8508,-0.8208,-0.8508,0.8211,-0.8211,0.8508,0.8208,0.8508,0.8508,0.8211,0.8508,-0.8208,0.8208,-0.8508,-0.8211,-0.8508,0*%
%AMMACRO5*4,1,8,-0.5874,-0.7394,-0.6171,-0.7094,-0.6171,0.7097,-0.5874,0.7394,0.5871,0.7394,0.6171,0.7097,0.6171,-0.7094,0.5871,-0.7394,-0.5874,-0.7394,0*%
%AMMACRO6*4,1,8,-0.5874,-0.7393,-0.6171,-0.7093,-0.6171,0.7095,-0.5874,0.7393,0.5871,0.7393,0.6171,0.7095,0.6171,-0.7093,0.5871,-0.7393,-0.5874,-0.7393,0*%
%AMMACRO7*4,1,8,-0.646,-0.4008,-0.6758,-0.3708,-0.6758,0.3711,-0.646,0.4008,0.6458,0.4008,0.6758,0.3711,0.6758,-0.3708,0.6458,-0.4008,-0.646,-0.4008,0*%
%AMMACRO8*4,1,8,-0.6462,-0.4008,-0.6759,-0.3708,-0.6759,0.3711,-0.6462,0.4008,0.6459,0.4008,0.6759,0.3711,0.6759,-0.3708,0.6459,-0.4008,-0.6462,-0.4008,0*%
%AMMACRO9*4,1,8,-0.871,-0.8382,-0.9007,-0.8082,-0.9007,0.8085,-0.871,0.8382,0.8707,0.8382,0.9007,0.8085,0.9007,-0.8082,0.8707,-0.8382,-0.871,-0.8382,0*%
%AMMACRO10*4,1,8,-0.5211,-0.7506,-0.5508,-0.7206,-0.5508,0.7209,-0.5211,0.7506,0.5208,0.7506,0.5508,0.7209,0.5508,-0.7206,0.5208,-0.7506,-0.5211,-0.7506,0*%
%AMMACRO11*4,1,8,-0.7209,-0.701,-0.7506,-0.6711,-0.7506,0.6713,-0.7209,0.701,0.7206,0.701,0.7506,0.6713,0.7506,-0.6711,0.7206,-0.701,-0.7209,-0.701,0*%
%AMMACRO12*4,1,8,-0.8085,-0.8382,-0.8382,-0.8082,-0.8382,0.8085,-0.8085,0.8382,0.8082,0.8382,0.8382,0.8085,0.8382,-0.8082,0.8082,-0.8382,-0.8085,-0.8382,0*%
%AMMACRO13*4,1,8,-0.4862,-0.6509,-0.5159,-0.6209,-0.5159,0.6212,-0.4862,0.6509,0.4859,0.6509,0.5159,0.6212,0.5159,-0.6209,0.4859,-0.6509,-0.4862,-0.6509,0*%
%AMMACRO14*4,1,8,-0.7261,-0.7258,-0.7558,-0.6958,-0.7558,0.6961,-0.7261,0.7258,0.7258,0.7258,0.7558,0.6961,0.7558,-0.6958,0.7258,-0.7258,-0.7261,-0.7258,0*%
%AMMACRO15*4,1,8,-0.5872,-0.7393,-0.617,-0.7093,-0.617,0.7095,-0.5872,0.7393,0.587,0.7393,0.617,0.7095,0.617,-0.7093,0.587,-0.7393,-0.5872,-0.7393,0*%
%ADD10C,2.8956*%
%ADD11MACRO1*%
%ADD12C,2.1016*%
%ADD13MACRO2*%
%ADD14MACRO3*%
%ADD15MACRO4*%
%ADD16C,1.7016*%
%ADD17C,3.4016*%
%ADD18MACRO5*%
%ADD19MACRO6*%
%ADD20MACRO7*%
%ADD21MACRO8*%
%ADD22MACRO9*%
%ADD23C,1.8016*%
%ADD24O,0.7500366X2.1320252*%
%ADD25MACRO10*%
%ADD26MACRO11*%
%ADD27C,1.6764*%
%ADD28MACRO12*%
%ADD29MACRO13*%
%ADD30MACRO14*%
%ADD31MACRO15*%

%LPD*%
D10*
G01*
X7720406Y8531326D03*
G01*
X6300393Y9131274D03*
G01*
X6500393Y9731273D03*
G01*
X6500393Y8531275D03*
G01*
X7720406Y9731222D03*
D11*
G01*
X5753100Y8748712D03*
G01*
X5753100Y8548687D03*
D12*
G01*
X8572500Y9664700D03*
G01*
X8572500Y8648700D03*
G01*
X8572500Y9156700D03*
D13*
G01*
X5756630Y9575901D03*
D14*
G01*
X5756630Y9905911D03*
D15*
G01*
X4134396Y8091893D03*
D16*
G01*
X4134408Y8341893D03*
G01*
X3934409Y8341893D03*
G01*
X3934409Y8091906D03*
D17*
G01*
X3663416Y8818905D03*
G01*
X3663416Y7614894D03*
D18*
G01*
X4497387Y9855200D03*
G01*
X4697412Y9855200D03*
D19*
G01*
X4510112Y9207512D03*
G01*
X4710112Y9207512D03*
D18*
G01*
X5132387Y9855200D03*
G01*
X5332412Y9855200D03*
D19*
G01*
X4710112Y9540201D03*
G01*
X4510112Y9540201D03*
D20*
G01*
X5069344Y9448800D03*
D21*
G01*
X5319268Y9543796D03*
G01*
X5319268Y9353804D03*
D22*
G01*
X4394200Y6451600D03*
D23*
G01*
X4140200Y6451600D03*
D24*
G01*
X5397500Y8636203D03*
G01*
X5270500Y8636203D03*
G01*
X5143500Y8636203D03*
G01*
X5016500Y8636203D03*
G01*
X5016500Y8076996D03*
G01*
X5143500Y8076996D03*
G01*
X5270500Y8076996D03*
G01*
X5397500Y8076996D03*
D25*
G01*
X4517783Y8864600D03*
G01*
X4727841Y8864600D03*
D26*
G01*
X5761405Y9057081D03*
G01*
X5761405Y9267139D03*
D27*
G01*
X4737100Y6451600D03*
G01*
X4991100Y6451600D03*
D28*
G01*
X5245100Y6451600D03*
D29*
G01*
X4739716Y8522042D03*
G01*
X4409719Y8522042D03*
D30*
G01*
X4689868Y7857197D03*
G01*
X4489869Y7857197D03*
G01*
X4689868Y8187169D03*
G01*
X4489869Y8187169D03*
D10*
G01*
X7720406Y6829552D03*
G01*
X6300393Y7429500D03*
G01*
X6500393Y8029498D03*
G01*
X6500393Y6829501D03*
G01*
X7720406Y8029447D03*
D31*
G01*
X4510100Y7193165D03*
D19*
G01*
X4710112Y7193165D03*
G01*
X4710112Y7525854D03*
D31*
G01*
X4510100Y7525854D03*
D11*
G01*
X5753100Y6983412D03*
G01*
X5753100Y6783387D03*
D20*
G01*
X5069344Y7442200D03*
D21*
G01*
X5319268Y7537196D03*
G01*
X5319268Y7347203D03*
D12*
G01*
X8585200Y7937500D03*
G01*
X8585200Y6921500D03*
G01*
X8585200Y7429500D03*
D26*
G01*
X5753100Y7324471D03*
G01*
X5753100Y7534528D03*
D13*
G01*
X5740400Y8204123D03*
D14*
G01*
X5740400Y7874114D03*
M02*
